<svg aria-hidden="true" style="position:absolute;width:0;height:0;overflow:hidden" xmlns="http://www.w3.org/2000/svg">
  <defs>
    <symbol id="icon-add" viewBox="0 0 32 32">
      <path stroke-linejoin="round" stroke-linecap="round" stroke-width="2.667" d="M16 10.667v10.667M10.667 16h10.667m7.999 0c0 7.364-5.97 13.333-13.333 13.333S2.667 23.363 2.667 16C2.667 8.636 8.637 2.667 16 2.667S29.333 8.637 29.333 16z"/>
    </symbol>
    <symbol id="icon-arrow-circle-broken-right" viewBox="0 0 32 32">
      <path stroke-linejoin="round" stroke-linecap="round" stroke-width="2.6" d="M4.451 9.333a13.328 13.328 0 0 1 11.55-6.667c7.364 0 13.333 5.97 13.333 13.333s-5.97 13.333-13.333 13.333a13.329 13.329 0 0 1-11.55-6.667"/>
      <path stroke-linejoin="round" stroke-linecap="round" stroke-width="2.6" d="M16 21.333 21.333 16 16 10.667M2.667 16h18.667"/>
    </symbol>
    <symbol id="icon-calendar-check" viewBox="0 0 32 32">
      <path stroke-linejoin="round" stroke-linecap="round" stroke-width="2.667" d="M28 13.333H4m24 3.334v-4.933c0-2.24 0-3.36-.436-4.216a3.991 3.991 0 0 0-1.748-1.748c-.856-.436-1.976-.436-4.216-.436H10.4c-2.24 0-3.36 0-4.216.436a3.991 3.991 0 0 0-1.748 1.748C4 8.374 4 9.494 4 11.734v11.2c0 2.24 0 3.36.436 4.216a3.991 3.991 0 0 0 1.748 1.748c.856.436 1.976.436 4.216.436H16m5.333-26.667V8M10.667 2.667V8m8.666 17.333L22 28l6-6"/>
    </symbol>
    <symbol id="icon-chart" viewBox="0 0 32 32">
      <path d="M23.8 9.037c0-.759.001-1.305.038-1.732.037-.436.103-.596.134-.648a.058.058 0 0 1 .015-.019h.001c.009-.006.045-.031.138-.06.208-.064.569-.112 1.207-.112s1 .048 1.207.112a.467.467 0 0 1 .138.06h.001c.004.003.007.005.015.019.031.052.097.212.134.648.037.427.037.973.037 1.732v13.926c0 .896-.051 1.503-.135 1.915-.084.414-.182.531-.199.548a.09.09 0 0 1-.029.02.68.68 0 0 1-.169.046c-.221.038-.511.041-1.002.041-.499 0-.793-.003-1.015-.042a.719.719 0 0 1-.168-.045c-.016-.008-.02-.012-.025-.017-.015-.016-.112-.131-.195-.547-.082-.413-.132-1.022-.132-1.92V9.036zM25.333 4.2c-1.288 0-2.612.136-3.305 1.291-.302.504-.403 1.084-.449 1.621-.046.535-.046 1.177-.046 1.884v13.968c0 .954.05 1.734.175 2.363.125.625.343 1.205.761 1.652.439.47.975.664 1.466.748.435.075.92.074 1.344.074h.107c.418 0 .9 0 1.333-.074.489-.084 1.023-.278 1.463-.745.42-.445.643-1.023.77-1.651.128-.63.18-1.412.18-2.367V8.996c0-.706 0-1.349-.046-1.884-.046-.536-.147-1.117-.449-1.621C27.944 4.336 26.62 4.2 25.332 4.2zm-10.828 8.467c-.033.301-.035.651-.035 1.111v9.811c-.033 1.146.175 1.533.299 1.666.107.115.376.279 1.23.279.834 0 1.112-.162 1.226-.283.127-.134.34-.522.303-1.658l-.001-.036v-9.778c0-.461-.001-.811-.035-1.111-.033-.296-.089-.448-.137-.529l-.002-.003c-.031-.053-.198-.335-1.356-.335s-1.324.282-1.356.335l-.002.003c-.049.081-.104.232-.137.529zm-1.807-1.694c.639-1.066 1.819-1.44 3.302-1.44s2.663.374 3.302 1.44c.284.475.395.99.445 1.444.049.438.049.908.049 1.328v9.793c.039 1.301-.16 2.461-.921 3.268-.777.823-1.869.995-2.875.995-1.015 0-2.112-.169-2.887-.999-.754-.808-.944-1.97-.909-3.261v-9.795c0-.42 0-.89.049-1.328.05-.454.161-.969.445-1.444zm-7.529 8.386c-.035.352-.036.776-.036 1.344v3.689c0 .641.155.816.23.88.122.103.453.261 1.303.261.832 0 1.167-.156 1.296-.264.081-.068.237-.247.237-.877v-3.669l-.009-.27c-.015-.439-.026-.782-.059-1.085-.039-.363-.099-.533-.146-.616l-.001-.002c-.012-.027-.127-.285-1.319-.285-1.196 0-1.336.261-1.355.297l-.001.003c-.046.078-.106.242-.141.593zm-1.813-1.741c.654-1.112 1.877-1.418 3.31-1.418 1.436 0 2.648.308 3.288 1.431.276.485.379 1.02.43 1.495.043.395.057.841.072 1.281l.009.257v3.729c0 .991-.256 1.949-1.047 2.613-.744.624-1.741.795-2.753.795-1.021 0-2.024-.169-2.767-.798-.79-.669-1.033-1.63-1.033-2.61v-3.725c0-.522 0-1.056.047-1.532.048-.487.155-1.029.442-1.517z"/>
    </symbol>
    <symbol id="icon-chevron-left" viewBox="0 0 32 32">
      <path stroke-linejoin="round" stroke-linecap="round" stroke-width="2.667" d="m12 24 8-8-8-8"/>
    </symbol>
    <symbol id="icon-login" viewBox="0 0 32 32">
      <path stroke-linejoin="round" stroke-linecap="round" stroke-width="3.2" d="M20 4h1.6c2.24 0 3.36 0 4.216.436a3.996 3.996 0 0 1 1.748 1.748C28 7.04 28 8.16 28 10.4v11.2c0 2.24 0 3.36-.436 4.216a4.001 4.001 0 0 1-1.748 1.748C24.96 28 23.84 28 21.6 28H20M13.333 9.333 20 16m0 0-6.667 6.667M20 16H4"/>
    </symbol>
    <symbol id="icon-logout" viewBox="0 0 32 32">
      <path stroke-linejoin="round" stroke-linecap="round" stroke-width="3.2" d="M21.333 22.667 28 16m0 0-6.667-6.667M28 16H12m0-12h-1.6c-2.24 0-3.36 0-4.216.436a3.991 3.991 0 0 0-1.748 1.748C4 7.04 4 8.16 4 10.4v11.2c0 2.24 0 3.36.436 4.216a3.996 3.996 0 0 0 1.748 1.748C7.04 28 8.16 28 10.4 28H12"/>
    </symbol>
    <symbol id="icon-moon" viewBox="0 0 32 32">
      <path d="M27.656 17.393c-.904.24-1.834.361-2.769.361-2.847 0-5.52-1.107-7.528-3.115a10.702 10.702 0 0 1-2.751-10.298 1.33 1.33 0 0 0-.943-1.63 1.345 1.345 0 0 0-.69 0A13.346 13.346 0 0 0 6.99 6.154c-5.197 5.197-5.197 13.657 0 18.857a13.26 13.26 0 0 0 9.429 3.907 13.245 13.245 0 0 0 9.427-3.905 13.343 13.343 0 0 0 3.444-5.988 1.33 1.33 0 0 0-.347-1.285 1.34 1.34 0 0 0-1.285-.346zm-3.696 5.735a10.594 10.594 0 0 1-7.542 3.124 10.585 10.585 0 0 1-7.544-3.125c-4.157-4.159-4.157-10.927 0-15.085a10.562 10.562 0 0 1 2.747-1.977 13.365 13.365 0 0 0 3.854 10.464 13.29 13.29 0 0 0 10.464 3.854 10.704 10.704 0 0 1-1.979 2.745z"/>
    </symbol>
    <symbol id="icon-pencil" viewBox="0 0 32 32">
      <path stroke-linejoin="round" stroke-linecap="round" stroke-width="2.6" d="m3.333 28.667 7.399-2.846c.473-.182.71-.273.931-.392.197-.106.384-.227.56-.364.198-.154.378-.333.736-.692l15.04-15.04A3.77 3.77 0 1 0 22.666 4L7.626 19.04c-.359.359-.538.538-.692.736a3.902 3.902 0 0 0-.364.561c-.119.221-.21.458-.392.931l-2.846 7.399zm0 0 2.744-7.135c.196-.511.295-.766.463-.883a.665.665 0 0 1 .505-.107c.201.038.395.232.782.619l3.012 3.012c.387.387.58.58.619.782a.665.665 0 0 1-.107.505c-.117.168-.372.267-.883.463l-7.135 2.744z"/>
    </symbol>
    <symbol id="icon-plus" viewBox="0 0 32 32">
      <path stroke-linejoin="round" stroke-linecap="round" stroke-width="2.667" d="M16 6.667v18.667M6.667 16h18.667"/>
    </symbol>
    <symbol id="icon-sun" viewBox="0 0 32 32">
      <path d="M9.324 16c0 3.681 2.995 6.676 6.676 6.676s6.676-2.995 6.676-6.676S19.681 9.324 16 9.324 9.324 12.319 9.324 16zM16 11.991c2.211 0 4.009 1.799 4.009 4.009S18.21 20.009 16 20.009c-2.211 0-4.009-1.799-4.009-4.009S13.79 11.991 16 11.991zm-1.336 13.342h2.667v4h-2.667v-4zm0-22.666h2.667v4h-2.667v-4zm-12 12h4v2.667h-4v-2.667zm22.667 0h4v2.667h-4v-2.667zM5.625 24.484l2.827-2.829 1.887 1.885-2.827 2.829-1.887-1.885zM21.653 8.459l2.829-2.829 1.885 1.885-2.829 2.829-1.885-1.885zM8.456 10.345 5.627 7.516l1.887-1.885 2.827 2.829-1.884 1.885zm17.912 14.14-1.885 1.885-2.829-2.829 1.885-1.885 2.829 2.829z"/>
    </symbol>
    <symbol id="icon-trash" viewBox="0 0 32 32">
      <path stroke-linejoin="round" stroke-linecap="round" stroke-width="2.6" d="M12 4h8M4 8h24M6.667 8l.801 12.018c.149 2.231.223 3.347.588 4.243a6 6 0 0 0 3.672 3.435c.919.304 2.037.304 4.273.304 2.236 0 3.354 0 4.273-.304a5.999 5.999 0 0 0 3.671-3.435c.365-.896.439-2.012.588-4.243L25.334 8"/>
    </symbol>
    <symbol id="icon-user-check" viewBox="0 0 32 32">
      <path stroke-linejoin="round" stroke-linecap="round" stroke-width="2.667" d="M21.333 24 24 26.667l5.333-5.333M16 20.667h-6c-1.861 0-2.791 0-3.548.23a5.331 5.331 0 0 0-3.555 3.556c-.23.757-.23 1.687-.23 3.548M13.333 16a6 6 0 1 0 0-12 6 6 0 0 0 0 12z"/>
    </symbol>
    <symbol id="icon-validation-error" viewBox="0 0 32 32">
      <path d="M14.4 20.8h3.2V24h-3.2v-3.2zm0-12.8h3.2v9.6h-3.2V8zm1.584-8C7.152 0 0 7.168 0 16s7.152 16 15.984 16C24.832 32 32 24.832 32 16S24.832 0 15.984 0zM16 28.8C8.928 28.8 3.2 23.072 3.2 16S8.928 3.2 16 3.2c7.072 0 12.8 5.728 12.8 12.8S23.072 28.8 16 28.8z"/>
    </symbol>
    <symbol id="icon-validation-success" viewBox="0 0 32 32">
      <path d="m14.133 18.4-2.9-2.9c-.244-.244-.55-.361-.916-.349s-.673.138-.917.383-.367.556-.367.933c0 .378.122.689.367.933l3.8 3.8c.244.244.556.367.933.367s.689-.122.933-.367l7.567-7.567c.244-.244.361-.55.351-.917s-.14-.672-.384-.916-.556-.367-.933-.367c-.378 0-.689.122-.933.367l-6.6 6.6zM16 29.333c-1.844 0-3.578-.35-5.2-1.051s-3.033-1.649-4.233-2.849-2.15-2.611-2.849-4.233c-.7-1.622-1.051-3.356-1.051-5.2s.35-3.578 1.051-5.2c.7-1.622 1.649-3.033 2.849-4.233s2.611-2.15 4.233-2.851c1.622-.7 3.356-1.049 5.2-1.049s3.578.35 5.2 1.049c1.622.7 3.033 1.651 4.233 2.851s2.15 2.611 2.849 4.233c.7 1.622 1.051 3.356 1.051 5.2s-.35 3.578-1.051 5.2c-.7 1.622-1.649 3.033-2.849 4.233s-2.611 2.15-4.233 2.849c-1.622.7-3.356 1.051-5.2 1.051zm0-2.666c2.956 0 5.472-1.039 7.551-3.116s3.116-4.595 3.116-7.551c0-2.956-1.039-5.472-3.116-7.551S18.956 5.333 16 5.333c-2.956 0-5.472 1.039-7.549 3.116S5.334 13.044 5.334 16c0 2.956 1.039 5.472 3.117 7.551s4.594 3.116 7.549 3.116z"/>
    </symbol>
    <symbol id="icon-x-close" viewBox="0 0 32 32">
      <path stroke-linejoin="round" stroke-linecap="round" stroke-width="2.667" d="M24 8 8 24M8 8l16 16"/>
    </symbol>
    <symbol id="burger-icon" viewBox="0 0 32 32">
      <path d="M28.047 17.224h-24.094c-0.565 0-1.129-0.565-1.129-1.224s0.565-1.129 1.129-1.129h24c0.659 0 1.129 0.565 1.129 1.129s-0.471 1.224-1.035 1.224z"></path>
      <path d="M28.047 9.224h-24.094c-0.565 0-1.129-0.565-1.129-1.224s0.565-1.129 1.129-1.129h24c0.659 0 1.129 0.565 1.129 1.129s-0.471 1.224-1.035 1.224z"></path>
      <path d="M28.047 25.224h-24.094c-0.659 0-1.129-0.565-1.129-1.129s0.565-1.129 1.129-1.129h24c0.659 0 1.129 0.565 1.129 1.129s-0.471 1.129-1.035 1.129z"></path>
    </symbol>
    <symbol id="logout-icon" viewBox="0 0 32 32">
      <path d="M12 29.6h-1.6c-2.4 0-3.68 0-4.96-0.64-1.12-0.48-1.92-1.44-2.4-2.4-0.64-1.28-0.64-2.56-0.64-4.96v-11.2c0-2.4 0-3.68 0.64-4.96 0.48-1.12 1.44-1.92 2.4-2.4 1.28-0.64 2.56-0.64 4.96-0.64h1.6c0.96 0 1.6 0.64 1.6 1.6s-0.64 1.6-1.6 1.6h-1.6c-1.92 0-3.040 0-3.52 0.32-0.48 0.16-0.8 0.48-0.96 0.96-0.32 0.48-0.32 1.6-0.32 3.52v11.2c0 1.92 0 3.040 0.32 3.52 0.16 0.48 0.48 0.8 0.96 0.96 0.48 0.32 1.6 0.32 3.52 0.32h1.6c0.96 0 1.6 0.64 1.6 1.6s-0.64 1.6-1.6 1.6zM21.28 24.32c-0.48 0-0.8-0.16-1.12-0.48-0.64-0.64-0.64-1.6 0-2.24l4-4h-12.16c-0.96 0-1.6-0.64-1.6-1.6s0.64-1.6 1.6-1.6h12.16l-4-4c-0.64-0.64-0.64-1.6 0-2.24s1.6-0.64 2.24 0l6.72 6.72c0.16 0.16 0.32 0.32 0.32 0.48s0.16 0.32 0.16 0.64v0c0 0 0 0 0 0v0c0 0.16 0 0.48-0.16 0.64 0 0.16-0.16 0.32-0.32 0.48l-6.72 6.72c-0.32 0.32-0.64 0.48-1.12 0.48z"></path>
    </symbol>
    <symbol id="cross-icon" viewBox="0 0 32 32">
      <path d="M17.694 16l7.153-7.153c0.471-0.471 0.471-1.224 0-1.694s-1.224-0.471-1.694 0l-7.153 7.153-7.153-7.153c-0.471-0.471-1.224-0.471-1.694 0s-0.471 1.224 0 1.694l7.153 7.153-7.153 7.153c-0.471 0.471-0.471 1.224 0 1.694 0.188 0.188 0.565 0.376 0.847 0.376s0.565-0.094 0.847-0.376l7.153-7.153 7.153 7.153c0.188 0.188 0.565 0.376 0.847 0.376s0.565-0.094 0.847-0.376c0.471-0.471 0.471-1.224 0-1.694l-7.153-7.153z"></path>
    </symbol>
    <symbol id="icon-chevron-down" viewBox="0 0 32 32">
      <path d="M3.272 10.586c0.375-0.375 0.884-0.586 1.414-0.586s1.039 0.211 1.414 0.586l9.9 9.9 9.9-9.9c0.377-0.364 0.882-0.566 1.407-0.561s1.026 0.215 1.397 0.586c0.371 0.371 0.581 0.872 0.586 1.397s-0.197 1.030-0.561 1.407l-11.314 11.314c-0.375 0.375-0.884 0.586-1.414 0.586s-1.039-0.211-1.414-0.586l-11.314-11.314c-0.375-0.375-0.586-0.884-0.586-1.414s0.211-1.039 0.586-1.414v0z"></path>
    </symbol>
    <symbol id="user-icon" viewBox="0 0 32 32">
      <path d="M2.667 29.333c-0.8 0-1.333-0.533-1.333-1.333 0-2 0-2.933 0.267-4 0.667-2.133 2.267-3.733 4.4-4.4 0.933-0.267 2-0.267 4-0.267h6c0.8 0 1.333 0.533 1.333 1.333s-0.533 1.333-1.333 1.333h-6c-1.733 0-2.533 0-3.2 0.133-1.333 0.4-2.267 1.333-2.667 2.667-0.133 0.667-0.133 1.467-0.133 3.2 0 0.8-0.533 1.333-1.333 1.333zM24 28c-0.4 0-0.667-0.133-0.933-0.4l-2.667-2.667c-0.533-0.533-0.533-1.333 0-1.867s1.333-0.533 1.867 0l1.733 1.733 4.4-4.4c0.533-0.533 1.333-0.533 1.867 0s0.533 1.333 0 1.867l-5.333 5.333c-0.267 0.267-0.533 0.4-0.933 0.4zM13.333 17.333c-4 0-7.333-3.333-7.333-7.333s3.333-7.333 7.333-7.333c4 0 7.333 3.333 7.333 7.333s-3.333 7.333-7.333 7.333zM13.333 5.333c-2.533 0-4.667 2.133-4.667 4.667s2.133 4.667 4.667 4.667 4.667-2.133 4.667-4.667-2.133-4.667-4.667-4.667z"></path>
    </symbol>
    <symbol id="calendar-icon" viewBox="0 0 32 32">
      <path d="M16 30.667h-5.6c-2.4 0-3.733 0-4.8-0.533s-1.867-1.333-2.267-2.267c-0.667-1.2-0.667-2.533-0.667-4.933v-11.2c0-2.4 0-3.733 0.533-4.8s1.333-1.867 2.267-2.267c1.067-0.533 2.133-0.667 3.867-0.667v-1.333c0-0.8 0.533-1.333 1.333-1.333s1.333 0.533 1.333 1.333v1.333h8v-1.333c0-0.8 0.533-1.333 1.333-1.333s1.333 0.533 1.333 1.333v1.333c1.733 0 2.8 0.133 3.733 0.533 1.067 0.533 1.867 1.333 2.267 2.267 0.667 1.2 0.667 2.533 0.667 4.933v4.933c0 0.8-0.533 1.333-1.333 1.333s-1.333-0.533-1.333-1.333v-2h-21.333v8.267c0 2 0 3.067 0.267 3.6s0.667 0.933 1.2 1.2c0.533 0.267 1.6 0.267 3.6 0.267h5.6c0.8 0 1.333 0.533 1.333 1.333s-0.533 1.333-1.333 1.333zM5.333 12h21.333v-0.267c0-2 0-3.067-0.267-3.6s-0.667-0.933-1.2-1.2c-0.4-0.267-1.2-0.267-2.533-0.267v1.333c0 0.8-0.533 1.333-1.333 1.333s-1.333-0.533-1.333-1.333v-1.333h-8v1.333c0 0.8-0.533 1.333-1.333 1.333s-1.333-0.533-1.333-1.333v-1.333c-1.333 0-2.133 0-2.533 0.267-0.533 0.267-0.933 0.667-1.2 1.2s-0.267 1.6-0.267 3.6v0.267zM22 29.333c-0.4 0-0.667-0.133-0.933-0.4l-2.667-2.667c-0.533-0.533-0.533-1.333 0-1.867s1.333-0.533 1.867 0l1.733 1.733 5.067-5.067c0.533-0.533 1.333-0.533 1.867 0s0.533 1.333 0 1.867l-6 6c-0.267 0.267-0.533 0.4-0.933 0.4z"></path>
    </symbol>
    <symbol id="chart-icon" viewBox="0 0 32 32">
      <path d="M23.808 9.041c0-0.76 0-1.306 0.037-1.734 0.037-0.435 0.104-0.595 0.133-0.647 0.009-0.013 0.013-0.016 0.016-0.019h0.001c0.039-0.026 0.085-0.046 0.134-0.059l0.003-0.001c0.208-0.064 0.57-0.112 1.208-0.112s1 0.048 1.208 0.112c0.052 0.013 0.098 0.034 0.139 0.060l-0.002-0.001c0.005 0.004 0.008 0.007 0.016 0.020 0.032 0.052 0.097 0.212 0.133 0.648 0.037 0.427 0.039 0.974 0.039 1.733v13.93c0 0.896-0.051 1.505-0.135 1.917-0.084 0.413-0.183 0.531-0.2 0.547-0.007 0.008-0.016 0.015-0.026 0.020l-0 0c-0.049 0.021-0.106 0.038-0.166 0.046l-0.004 0c-0.221 0.037-0.511 0.041-1.003 0.041-0.499 0-0.792-0.004-1.015-0.041-0.063-0.009-0.119-0.024-0.172-0.047l0.004 0.002c-0.010-0.004-0.018-0.010-0.024-0.017l-0-0c-0.015-0.015-0.112-0.131-0.195-0.547-0.083-0.413-0.132-1.022-0.132-1.921v-13.93zM25.342 4.202c-1.288 0-2.614 0.136-3.306 1.291-0.301 0.504-0.403 1.086-0.45 1.622-0.045 0.534-0.045 1.178-0.045 1.883v13.973c0 0.955 0.051 1.735 0.176 2.364 0.124 0.627 0.343 1.206 0.76 1.654 0.44 0.468 0.976 0.663 1.467 0.747 0.435 0.075 0.92 0.075 1.344 0.075h0.107c0.417 0 0.9 0 1.334-0.075 0.489-0.084 1.023-0.277 1.463-0.744 0.42-0.445 0.643-1.023 0.771-1.651 0.128-0.631 0.18-1.413 0.18-2.369v-13.973c0-0.707 0-1.348-0.045-1.883-0.047-0.536-0.147-1.118-0.45-1.622-0.694-1.155-2.018-1.291-3.306-1.291zM14.511 12.671c-0.024 0.266-0.037 0.575-0.037 0.887 0 0.079 0.001 0.157 0.003 0.236l-0-0.012v9.782c0 0.005 0 0.010 0 0.016s-0 0.011-0 0.017v-0.001c-0.033 1.147 0.175 1.534 0.299 1.667 0.107 0.115 0.377 0.279 1.231 0.279 0.835 0 1.112-0.163 1.227-0.283 0.127-0.135 0.339-0.523 0.303-1.659v-9.818c0-0.46-0.003-0.811-0.036-1.111-0.032-0.296-0.088-0.448-0.136-0.53l-0.003-0.003c-0.031-0.053-0.197-0.335-1.355-0.335-1.159 0-1.326 0.283-1.356 0.335l-0.001 0.003c-0.049 0.081-0.104 0.233-0.137 0.53zM12.702 10.977c0.64-1.067 1.821-1.441 3.304-1.441s2.664 0.373 3.303 1.441c0.284 0.475 0.395 0.99 0.445 1.444 0.049 0.438 0.049 0.907 0.049 1.328v9.795c0.040 1.302-0.16 2.464-0.922 3.269-0.776 0.824-1.87 0.995-2.876 0.995-1.016 0-2.114-0.169-2.888-1-0.755-0.807-0.944-1.97-0.91-3.261v-9.798c0-0.42 0-0.891 0.048-1.328 0.051-0.454 0.161-0.97 0.446-1.444zM5.171 19.367c-0.025 0.318-0.039 0.689-0.039 1.063 0 0.099 0.001 0.198 0.003 0.297l-0-0.015v3.689c0 0.64 0.155 0.816 0.231 0.88 0.121 0.104 0.454 0.261 1.303 0.261 0.832 0 1.167-0.156 1.296-0.264 0.080-0.068 0.237-0.248 0.237-0.878v-3.669l-0.009-0.269c-0.015-0.44-0.027-0.783-0.059-1.086-0.040-0.364-0.099-0.534-0.147-0.616v-0.001c-0.013-0.027-0.128-0.285-1.319-0.285-1.196 0-1.336 0.261-1.355 0.297l-0.001 0.003c-0.047 0.079-0.107 0.241-0.141 0.594zM3.357 17.624c0.654-1.111 1.878-1.418 3.312-1.418 1.437 0 2.649 0.307 3.289 1.431 0.277 0.484 0.379 1.020 0.431 1.495 0.043 0.395 0.057 0.842 0.072 1.28l0.008 0.259v0.013l0.001 0.027v3.689c0 0.991-0.256 1.95-1.047 2.614-0.744 0.624-1.742 0.795-2.754 0.795-1.022 0-2.025-0.169-2.768-0.798-0.791-0.67-1.034-1.631-1.034-2.612v-3.727c0-0.522 0-1.056 0.047-1.533 0.049-0.487 0.156-1.027 0.443-1.518z"></path>
    </symbol>
    <symbol id="arrow-circle-icon" viewBox="0 0 32 32">
      <path d="M16 1.4c-5.2 0-10 2.8-12.6 7.4-0.4 0.6-0.2 1.2 0.4 1.6s1.4 0.2 1.8-0.4c2.2-3.8 6.2-6 10.4-6 6.6 0 12 5.4 12 12s-5.4 12-12 12c-4.2 0-8.2-2.4-10.4-6-0.4-0.6-1.2-0.8-1.8-0.4s-0.8 1.2-0.4 1.8c2.6 4.4 7.4 7.2 12.6 7.2 8 0 14.6-6.6 14.6-14.6s-6.6-14.6-14.6-14.6z"></path>
      <path d="M15 20.4c-0.6 0.6-0.6 1.4 0 1.8 0.2 0.2 0.6 0.4 1 0.4s0.6-0.2 1-0.4l5.4-5.4c0.2-0.2 0.2-0.2 0.2-0.4s0.2-0.4 0.2-0.4 0-0.4-0.2-0.4c0-0.2-0.2-0.4-0.2-0.4l-5.4-5.4c-0.6-0.6-1.4-0.6-1.8 0s-0.6 1.4 0 1.8l3.2 3.2h-15.8c-0.6 0-1.2 0.4-1.2 1.2s0.6 1.4 1.2 1.4h15.6l-3.2 3z"></path>
    </symbol>
    <symbol id="pencil-icon" viewBox="0 0 32 32">
      <path d="M3.4 30c-0.4 0-0.6-0.2-1-0.4-0.4-0.4-0.4-1-0.2-1.4l2.8-7.2v-0.4c0.2-0.6 0.4-0.8 0.4-1l0.6-0.6c0-0.2 0.2-0.4 0.6-0.8l15-15c2-2 5.2-2 7.2 0s2 5.2 0 7.2l-15 15c-0.4 0.4-0.6 0.6-0.8 0.6-0.2 0.2-0.4 0.4-0.8 0.4-0.2 0.2-0.6 0.2-1 0.4l-7.4 2.8c-0.2 0.4-0.4 0.4-0.4 0.4zM7.2 22.4l-1.6 4 4-1.6-2.4-2.4zM8.6 20l3.4 3.4 15-15c1-1 1-2.6 0-3.4-1-1-2.6-1-3.4 0l-15 15z"></path>
    </symbol>
    <symbol id="plus-circle-icon" viewBox="0 0 32 32">
      <path d="M16 30.667c-8.133 0-14.667-6.533-14.667-14.667s6.533-14.667 14.667-14.667 14.667 6.533 14.667 14.667-6.533 14.667-14.667 14.667zM16 4c-6.667 0-12 5.333-12 12s5.333 12 12 12 12-5.333 12-12-5.333-12-12-12zM16 22.667c-0.8 0-1.333-0.533-1.333-1.333v-4h-4c-0.8 0-1.333-0.533-1.333-1.333s0.533-1.333 1.333-1.333h4v-4c0-0.8 0.533-1.333 1.333-1.333s1.333 0.533 1.333 1.333v4h4c0.8 0 1.333 0.533 1.333 1.333s-0.533 1.333-1.333 1.333h-4v4c0 0.8-0.533 1.333-1.333 1.333z"></path>
    </symbol>
    <symbol id="plus-icon" viewBox="0 0 32 32">
      <path d="M16 26.667c-0.8 0-1.333-0.533-1.333-1.333v-8h-8c-0.8 0-1.333-0.533-1.333-1.333s0.533-1.333 1.333-1.333h8v-8c0-0.8 0.533-1.333 1.333-1.333s1.333 0.533 1.333 1.333v8h8c0.8 0 1.333 0.533 1.333 1.333s-0.533 1.333-1.333 1.333h-8v8c0 0.8-0.533 1.333-1.333 1.333z"></path>
    </symbol>
    <symbol id="trash-first-icon" viewBox="0 0 32 32">
      <path d="M12 5.4h8c0.8 0 1.4-0.6 1.4-1.2s-0.6-1.4-1.4-1.4h-8c-0.8 0-1.2 0.4-1.2 1.2s0.4 1.4 1.2 1.4zM28 6.8h-24c-0.8 0-1.2 0.4-1.2 1.2s0.4 1.4 1.2 1.4h1.4l0.8 10.8c0.2 2.4 0.2 3.6 0.6 4.6 0.8 2 2.4 3.6 4.4 4.2 1.2 0.4 2.4 0.4 4.6 0.4s3.6 0 4.6-0.4c2-0.6 3.6-2.2 4.4-4.2 0.4-1 0.6-2.2 0.6-4.6l0.8-10.8h1.8c0.8 0 1.4-0.6 1.4-1.2s-0.6-1.4-1.4-1.4zM23.2 20c-0.2 2-0.2 3.2-0.4 3.8-0.6 1.2-1.6 2.2-2.8 2.6-0.8 0.2-2 0.2-4 0.2s-3.2 0-3.8-0.2c-1.4-0.4-2.4-1.4-2.8-2.6-0.4-0.8-0.4-1.8-0.6-3.8l-0.8-10.6h16l-0.8 10.6z"></path>
    </symbol>
    <symbol id="trash-second-icon" viewBox="0 0 32 32">
      <path d="M28 6.6h-5.2v-1.2c0-1-0.4-2.2-1.2-3s-1.8-1.2-3-1.2h-5.2c-1 0-2.2 0.4-3 1.2s-1.2 1.8-1.2 3v1.2h-5.2c-0.8 0-1.6 0.6-1.6 1.4s0.8 1.6 1.6 1.6h1.2v17.2c0 1 0.4 2.2 1.2 3s1.8 1.2 3 1.2h13.4c1 0 2.2-0.4 3-1.2s1.2-1.8 1.2-3v-17.2h1c0.8 0 1.6-0.6 1.6-1.6s-0.8-1.4-1.6-1.4zM12.2 5.4c0-0.4 0.2-0.6 0.4-0.8s0.6-0.4 0.8-0.4h5.4c0.4 0 0.6 0.2 0.8 0.4s0.4 0.6 0.4 0.8v1.2h-7.8v-1.2zM23.8 26.6c0 0.4-0.2 0.6-0.4 0.8s-0.6 0.4-0.8 0.4h-13.2c-0.4 0-0.6-0.2-0.8-0.4s-0.4-0.6-0.4-0.8v-17h15.6v17z"></path>
      <path d="M13.4 13.2c-0.8 0-1.6 0.6-1.6 1.6v8c0 0.8 0.6 1.6 1.6 1.6s1.6-0.6 1.6-1.6v-8c-0.2-1-0.8-1.6-1.6-1.6zM18.6 13.2c-0.8 0-1.6 0.6-1.6 1.6v8c0 0.8 0.6 1.6 1.6 1.6s1.6-0.6 1.6-1.6v-8c0-1-0.8-1.6-1.6-1.6z"></path>
    </symbol>
  </defs>
</svg>
