<?xml version="1.0" standalone="no"?>
<!DOCTYPE svg PUBLIC "-//W3C//DTD SVG 20010904//EN"
 "http://www.w3.org/TR/2001/REC-SVG-20010904/DTD/svg10.dtd">
<svg version="1.0" xmlns="http://www.w3.org/2000/svg"
 width="1024.000000pt" height="1024.000000pt" viewBox="0 0 1024.000000 1024.000000"
 preserveAspectRatio="xMidYMid meet">
<metadata>
Created by potrace 1.14, written by Peter Selinger 2001-2017
</metadata>
<g transform="translate(0.000000,1024.000000) scale(0.100000,-0.100000)"
fill="#000000" stroke="none">
<path d="M4903 9019 c-12 -4 -61 -9 -109 -10 -75 -2 -108 -6 -169 -22 -29 -8
-94 -49 -124 -79 -45 -43 -81 -124 -84 -184 -1 -32 -9 -55 -20 -67 -42 -42
-60 -141 -37 -201 7 -20 5 -34 -12 -63 -12 -21 -25 -40 -28 -43 -9 -9 -30 -45
-36 -62 -4 -10 -11 -18 -16 -18 -5 0 -7 -4 -3 -9 3 -5 -2 -17 -11 -25 -8 -9
-13 -16 -10 -16 2 0 0 -15 -5 -32 -15 -48 -11 -149 6 -193 63 -160 160 -350
201 -392 6 -6 9 -36 8 -70 -13 -254 -23 -444 -28 -528 -9 -142 -17 -262 -21
-295 -2 -19 -6 -71 -10 -115 -3 -44 -8 -93 -10 -110 -2 -16 -6 -70 -10 -120
-4 -49 -9 -92 -10 -95 -2 -3 -6 -34 -9 -70 -7 -72 -12 -112 -22 -180 -3 -25
-8 -61 -10 -80 -2 -19 -5 -44 -8 -55 -2 -11 -5 -29 -5 -41 -1 -16 -8 -21 -33
-22 -73 -3 -135 -11 -160 -21 -14 -5 -29 -7 -32 -4 -3 4 -6 1 -6 -5 0 -7 -3
-11 -7 -10 -11 4 -86 -43 -96 -58 -4 -7 -14 -20 -23 -29 -28 -28 -56 -127 -58
-201 -1 -52 -5 -75 -18 -88 -10 -9 -31 -46 -48 -82 -17 -35 -34 -62 -38 -60
-15 9 -159 7 -238 -2 -70 -9 -199 -51 -214 -71 -3 -3 -25 -19 -49 -36 -24 -16
-45 -35 -48 -42 -3 -7 -9 -10 -14 -7 -5 3 -9 1 -9 -5 0 -18 -50 -60 -100 -86
-27 -14 -98 -41 -157 -61 -59 -19 -117 -39 -128 -44 -30 -13 -69 -24 -77 -22
-5 1 -8 -3 -8 -9 0 -5 -3 -8 -8 -5 -4 2 -30 -6 -57 -19 -28 -12 -53 -21 -57
-18 -5 2 -8 -1 -8 -6 0 -6 -6 -11 -14 -11 -13 0 -28 -6 -96 -41 -8 -4 -44 -22
-80 -40 -117 -58 -342 -205 -463 -302 -16 -12 -34 -20 -40 -18 -7 2 -30 4 -52
5 -22 1 -44 4 -50 6 -5 3 -38 5 -72 5 -35 0 -63 2 -63 5 0 7 -29 8 -230 10
-143 0 -235 -3 -235 -10 0 -1 -11 -3 -25 -6 -34 -6 -104 -39 -117 -56 -46 -56
-57 -111 -38 -183 9 -34 64 -150 98 -207 143 -240 140 -234 123 -265 -8 -16
-23 -37 -33 -48 -18 -19 -151 -198 -183 -246 -8 -12 -23 -30 -32 -40 -9 -9
-14 -20 -10 -23 3 -3 0 -6 -7 -6 -7 0 -9 -4 -6 -10 3 -5 1 -10 -4 -10 -6 0
-11 -7 -11 -16 0 -8 -5 -12 -10 -9 -6 3 -10 -1 -10 -9 0 -9 -4 -16 -10 -16 -5
0 -10 -5 -10 -11 0 -6 -18 -36 -39 -67 -52 -76 -171 -262 -171 -267 0 -3 -17
-31 -37 -62 -21 -32 -38 -60 -38 -63 -1 -5 -33 -59 -63 -105 -6 -11 -18 -31
-24 -45 -7 -14 -16 -28 -21 -31 -5 -3 -8 -8 -7 -10 1 -2 -7 -20 -18 -39 -12
-19 -22 -39 -23 -45 0 -5 -10 -22 -20 -37 -10 -14 -19 -30 -19 -36 0 -5 -7
-15 -15 -22 -8 -7 -12 -16 -9 -21 3 -5 0 -9 -5 -9 -6 0 -11 -4 -11 -10 0 -5
-13 -32 -30 -60 -16 -27 -27 -50 -24 -50 3 0 -3 -12 -13 -28 -11 -15 -50 -90
-89 -167 -38 -77 -72 -141 -76 -143 -5 -2 -8 -8 -8 -14 0 -6 -26 -63 -57 -127
-31 -64 -58 -118 -58 -121 -1 -3 -5 -13 -9 -23 -11 -23 12 -50 36 -44 10 3 18
1 18 -3 0 -5 15 -7 33 -6 51 4 101 26 138 59 59 53 60 53 28 -34 -16 -45 -35
-91 -41 -102 -5 -11 -12 -32 -14 -47 -4 -23 2 -31 45 -57 l49 -31 44 46 c53
56 165 193 198 242 13 19 27 37 30 40 4 3 20 27 36 53 16 27 37 61 46 75 10
15 27 45 39 67 12 22 25 42 28 45 4 3 13 20 20 38 13 31 36 57 26 30 -2 -7 -7
-38 -10 -68 -7 -76 -13 -120 -19 -155 -3 -16 -9 -50 -12 -75 -3 -25 -10 -64
-15 -87 -11 -52 -4 -76 19 -63 10 6 43 21 74 34 67 29 145 84 153 109 4 9 9
15 13 13 4 -2 18 13 31 35 35 54 36 50 43 -88 2 -40 6 -73 10 -73 17 0 124 75
167 117 25 24 62 70 83 101 21 31 38 50 38 42 0 -9 13 -30 29 -48 34 -37 76
-42 120 -16 30 17 90 104 137 194 16 30 32 57 37 58 4 2 7 11 7 20 0 10 7 25
14 34 13 18 27 24 24 10 -3 -15 16 -48 40 -69 53 -45 109 -34 184 39 50 50
153 177 160 200 2 6 21 3 48 -9 63 -28 179 -71 215 -79 17 -4 35 -9 40 -13 11
-6 29 -11 60 -15 11 -1 40 -8 63 -15 61 -17 199 -42 317 -56 103 -13 119 -15
123 -20 3 -2 6 -26 8 -52 13 -163 79 -343 216 -583 34 -60 76 -178 84 -237 7
-56 -2 -68 -56 -77 -19 -3 -50 -10 -69 -15 -19 -6 -37 -8 -41 -6 -4 2 -29 -16
-56 -40 -27 -25 -52 -45 -56 -46 -5 -1 -11 -2 -15 -3 -5 -1 -35 -8 -68 -15
-65 -14 -82 -23 -133 -68 -103 -94 -74 -204 49 -190 28 4 58 12 67 19 8 7 16
11 16 9 1 -1 28 5 61 15 33 9 69 18 80 20 11 1 20 3 20 4 0 3 40 10 80 14 22
3 42 5 45 6 12 3 99 1 143 -4 64 -7 159 -41 222 -79 27 -17 52 -34 55 -37 8
-10 134 -86 155 -94 83 -31 155 -1 155 65 0 30 1 31 33 24 17 -4 44 -8 60 -9
15 0 27 -4 27 -7 0 -3 10 -5 23 -4 88 6 128 43 117 108 -7 38 -6 38 19 32 14
-4 31 -8 36 -9 6 -1 15 -4 20 -7 11 -7 101 -5 125 2 19 5 48 36 55 60 6 19
-19 79 -33 79 -5 0 -18 9 -30 20 -12 12 -22 18 -22 15 0 -4 -12 2 -27 13 -16
10 -44 25 -63 32 -19 7 -71 31 -115 52 -44 21 -85 38 -91 38 -6 0 -17 7 -24
15 -7 9 -15 13 -18 11 -9 -10 -89 53 -127 101 -22 26 -43 50 -47 53 -11 8
-128 242 -128 257 0 6 -5 24 -12 40 -13 33 -18 51 -20 78 -1 11 -5 25 -10 31
-5 7 -8 16 -6 20 1 5 -1 23 -5 39 -8 38 -17 113 -22 185 -2 30 -6 78 -9 107
l-5 52 47 7 c50 7 56 8 114 23 20 5 39 6 42 3 3 -2 11 0 18 6 7 5 31 14 53 18
53 11 55 11 58 14 1 1 11 4 22 5 21 4 177 57 235 82 79 33 305 147 308 155 2
4 8 8 13 8 22 0 206 136 308 227 20 18 39 33 44 33 4 0 7 4 7 8 0 5 24 33 53
63 100 104 208 262 287 419 17 33 28 60 25 60 -4 0 1 10 9 22 9 12 16 28 16
34 0 6 8 29 17 50 9 22 18 44 19 49 2 6 15 53 29 105 26 96 32 109 56 114 86
17 117 33 166 83 29 29 53 57 53 62 0 8 48 31 113 52 20 7 37 17 37 21 0 4 6
8 13 8 17 0 58 72 61 108 3 30 28 46 86 57 55 9 56 10 93 35 28 19 38 34 43
65 4 22 7 47 5 56 -1 10 17 23 56 40 97 40 133 92 133 190 0 54 24 74 94 83
31 3 68 14 82 23 29 19 54 64 61 107 8 57 9 59 61 52 26 -3 58 -8 72 -11 14
-4 36 -8 50 -11 14 -3 39 -8 55 -13 17 -4 64 -7 105 -6 63 1 85 7 135 33 61
33 155 57 155 40 0 -5 7 -5 18 1 9 5 22 9 27 9 35 1 95 15 95 22 0 5 8 11 19
15 10 3 22 15 28 27 8 17 19 22 65 24 119 6 260 56 305 108 13 14 20 26 18 26
-3 0 -1 8 4 18 7 13 6 23 -1 30 -7 7 -10 12 -7 13 2 0 11 2 19 4 8 2 26 6 40
9 72 16 104 24 108 26 1 2 5 3 10 4 33 8 101 35 173 69 72 34 88 46 98 72 6
17 11 39 11 48 0 9 3 16 8 15 7 -2 96 10 137 18 11 3 35 7 54 10 52 9 71 13
91 19 10 3 27 7 37 9 41 8 113 49 128 73 19 29 15 86 -9 112 -15 17 -14 18 21
16 21 0 46 3 56 7 11 6 17 5 17 -2 0 -6 4 -9 9 -5 6 3 36 8 68 11 128 10 169
20 205 45 15 11 29 26 30 32 0 7 2 19 3 27 1 8 -5 27 -12 43 -7 15 -12 27 -11
28 2 1 14 2 28 4 79 9 181 41 259 82 81 43 90 51 65 59 -10 3 -35 14 -55 25
-20 10 -44 19 -52 19 -8 0 -17 6 -20 14 -4 10 6 15 33 20 86 14 211 81 282
152 21 21 21 21 -17 28 -17 3 -41 8 -55 11 -14 3 -38 8 -53 10 -15 3 -56 12
-90 21 -70 17 -92 22 -126 29 -34 6 -39 15 -10 16 68 4 131 11 294 34 22 3 51
8 65 11 24 6 36 8 92 18 41 7 231 57 241 63 10 6 0 104 -12 116 -5 5 -52 10
-104 11 -100 1 -111 10 -44 37 50 21 84 67 91 126 l6 41 -128 -2 c-70 -1 -133
-5 -140 -10 -7 -4 -12 -2 -12 4 0 6 -4 9 -9 6 -4 -3 -80 -8 -167 -11 -87 -4
-186 -8 -219 -10 -33 -2 -112 -6 -175 -9 -63 -4 -133 -8 -155 -11 -22 -2 -76
-7 -120 -10 -44 -4 -100 -8 -125 -11 -25 -2 -67 -7 -95 -9 -61 -6 -132 -13
-205 -21 -30 -4 -67 -7 -82 -8 -16 0 -28 -3 -28 -6 0 -3 -15 -5 -33 -6 -31 -1
-91 -8 -151 -20 -16 -3 -48 -7 -70 -9 -23 -2 -54 -6 -71 -9 -42 -8 -95 -17
-130 -23 -32 -4 -183 -33 -200 -37 -5 -2 -32 -7 -60 -11 -58 -10 -64 -12 -67
-15 -2 -1 -14 -3 -28 -4 -14 -2 -35 -6 -47 -10 -12 -4 -32 -9 -45 -12 -27 -6
-56 -12 -83 -18 -50 -11 -325 -90 -372 -106 -28 -10 -54 -15 -57 -12 -3 3 -6
0 -6 -7 0 -7 -4 -10 -8 -7 -5 3 -19 -1 -33 -8 -13 -7 -28 -13 -34 -15 -49 -11
-63 -15 -80 -25 -11 -5 -22 -11 -25 -12 -3 0 -14 -4 -25 -9 -11 -4 -49 -19
-85 -33 -70 -27 -337 -156 -410 -199 -109 -63 -313 -204 -370 -256 -8 -7 -40
-33 -70 -58 -30 -24 -64 -53 -75 -64 -94 -93 -264 -179 -278 -141 -10 25 -30
177 -24 182 3 3 -1 27 -8 52 -8 25 -12 48 -10 51 3 2 0 10 -6 17 -6 8 -9 20
-6 28 3 8 3 17 -1 21 -3 3 -7 16 -8 28 -1 12 -5 49 -9 82 -7 57 -9 78 -20 185
-2 25 -6 108 -9 185 -3 77 -6 142 -7 145 -1 3 -1 9 0 14 1 4 4 70 7 145 2 75
6 159 9 186 11 139 21 319 31 565 3 91 7 181 8 202 1 29 12 47 51 90 93 98
141 178 175 288 8 25 24 60 37 78 49 73 71 201 49 286 -6 22 -13 43 -17 46 -3
3 -14 20 -24 38 -11 17 -27 34 -36 37 -9 3 -28 30 -42 59 -14 30 -36 63 -48
75 -22 20 -35 91 -17 91 5 0 6 6 1 13 -4 6 -9 23 -11 37 -4 33 -47 106 -66
113 -9 3 -27 30 -42 59 -51 102 -98 154 -168 188 -46 22 -138 32 -173 19z
m-714 -3770 c-29 -98 -49 -143 -49 -108 0 8 -11 43 -24 76 -13 33 -21 65 -17
69 20 28 105 77 119 69 1 -1 -12 -49 -29 -106z m-653 -3771 c1 -5 3 -11 4 -15
1 -5 2 -12 1 -17 -1 -4 4 -14 10 -22 6 -8 8 -14 4 -14 -4 0 -2 -7 5 -15 7 -8
10 -15 6 -15 -3 0 -1 -12 4 -26 7 -17 7 -23 -1 -19 -8 6 -24 36 -34 65 -1 3
-7 18 -13 33 -7 16 -12 34 -12 42 0 8 -4 16 -9 19 -8 5 -18 41 -26 96 -3 20
54 -86 61 -112z"/>
</g>
</svg>
