<svg aria-hidden="true" style="position: absolute; width: 0; height: 0; overflow: hidden;" version="1.1" xmlns="http://www.w3.org/2000/svg" xmlns:xlink="http://www.w3.org/1999/xlink">
<defs>
<symbol id="burger-icon" viewBox="0 0 32 32">
<path d="M28.047 17.224h-24.094c-0.565 0-1.129-0.565-1.129-1.224s0.565-1.129 1.129-1.129h24c0.659 0 1.129 0.565 1.129 1.129s-0.471 1.224-1.035 1.224z"></path>
<path d="M28.047 9.224h-24.094c-0.565 0-1.129-0.565-1.129-1.224s0.565-1.129 1.129-1.129h24c0.659 0 1.129 0.565 1.129 1.129s-0.471 1.224-1.035 1.224z"></path>
<path d="M28.047 25.224h-24.094c-0.659 0-1.129-0.565-1.129-1.129s0.565-1.129 1.129-1.129h24c0.659 0 1.129 0.565 1.129 1.129s-0.471 1.129-1.035 1.129z"></path>
</symbol>
<symbol id="cross-icon" viewBox="0 0 32 32">
<path d="M17.694 16l7.153-7.153c0.471-0.471 0.471-1.224 0-1.694s-1.224-0.471-1.694 0l-7.153 7.153-7.153-7.153c-0.471-0.471-1.224-0.471-1.694 0s-0.471 1.224 0 1.694l7.153 7.153-7.153 7.153c-0.471 0.471-0.471 1.224 0 1.694 0.188 0.188 0.565 0.376 0.847 0.376s0.565-0.094 0.847-0.376l7.153-7.153 7.153 7.153c0.188 0.188 0.565 0.376 0.847 0.376s0.565-0.094 0.847-0.376c0.471-0.471 0.471-1.224 0-1.694l-7.153-7.153z"></path>
</symbol>
<symbol id="logout-icon" viewBox="0 0 32 32">
<path d="M12 29.6h-1.6c-2.4 0-3.68 0-4.96-0.64-1.12-0.48-1.92-1.44-2.4-2.4-0.64-1.28-0.64-2.56-0.64-4.96v-11.2c0-2.4 0-3.68 0.64-4.96 0.48-1.12 1.44-1.92 2.4-2.4 1.28-0.64 2.56-0.64 4.96-0.64h1.6c0.96 0 1.6 0.64 1.6 1.6s-0.64 1.6-1.6 1.6h-1.6c-1.92 0-3.040 0-3.52 0.32-0.48 0.16-0.8 0.48-0.96 0.96-0.32 0.48-0.32 1.6-0.32 3.52v11.2c0 1.92 0 3.040 0.32 3.52 0.16 0.48 0.48 0.8 0.96 0.96 0.48 0.32 1.6 0.32 3.52 0.32h1.6c0.96 0 1.6 0.64 1.6 1.6s-0.64 1.6-1.6 1.6zM21.28 24.32c-0.48 0-0.8-0.16-1.12-0.48-0.64-0.64-0.64-1.6 0-2.24l4-4h-12.16c-0.96 0-1.6-0.64-1.6-1.6s0.64-1.6 1.6-1.6h12.16l-4-4c-0.64-0.64-0.64-1.6 0-2.24s1.6-0.64 2.24 0l6.72 6.72c0.16 0.16 0.32 0.32 0.32 0.48s0.16 0.32 0.16 0.64v0c0 0 0 0 0 0v0c0 0.16 0 0.48-0.16 0.64 0 0.16-0.16 0.32-0.32 0.48l-6.72 6.72c-0.32 0.32-0.64 0.48-1.12 0.48z"></path>
</symbol>
<symbol id="moon-icon" viewBox="0 0 32 32">
<path d="M27.666 17.399c-0.903 0.24-1.835 0.362-2.771 0.362-2.847 0-5.522-1.107-7.53-3.116-1.924-1.935-3.113-4.602-3.113-7.547 0-0.979 0.132-1.928 0.378-2.829l-0.018 0.075c0.029-0.103 0.045-0.222 0.045-0.344 0-0.736-0.597-1.333-1.333-1.333-0.123 0-0.242 0.017-0.356 0.048l0.009-0.002c-2.354 0.64-4.375 1.838-5.987 3.445l0-0c-5.199 5.199-5.199 13.662 0 18.864 2.401 2.414 5.725 3.908 9.399 3.908 0.012 0 0.024-0 0.037-0h-0.002c0.011 0 0.024 0 0.037 0 3.671 0 6.993-1.494 9.392-3.907l0.001-0.001c1.608-1.613 2.805-3.635 3.423-5.896l0.022-0.094c0.028-0.102 0.044-0.22 0.044-0.341 0-0.738-0.598-1.335-1.335-1.335-0.121 0-0.239 0.016-0.351 0.047l0.009-0.002zM23.968 23.136c-1.92 1.93-4.579 3.125-7.516 3.125-0.010 0-0.019 0-0.029-0h0.002c-0.008 0-0.017 0-0.027 0-2.939 0-5.598-1.195-7.52-3.126l-0-0c-4.159-4.16-4.159-10.931 0-15.091 0.803-0.802 1.731-1.471 2.747-1.978-0.025 0.309-0.040 0.67-0.040 1.033 0 3.682 1.488 7.017 3.896 9.435l-0-0c2.407 2.409 5.733 3.899 9.408 3.899 0.373 0 0.743-0.015 1.108-0.046l-0.048 0.003c-0.538 1.056-1.198 1.961-1.98 2.746l0-0z"></path>
</symbol>
<symbol id="sun-icon" viewBox="0 0 32 32">
<path d="M9.327 16.006c0.004 3.687 2.992 6.674 6.678 6.678h0c3.687-0.004 6.674-2.992 6.678-6.678v-0c-0.004-3.687-2.992-6.674-6.678-6.678h-0c-3.687 0.004-6.674 2.992-6.678 6.678v0zM16.006 11.994c2.211 0 4.011 1.801 4.011 4.011s-1.801 4.011-4.011 4.011c-2.215-0.002-4.009-1.797-4.011-4.011v-0c0-2.211 1.801-4.011 4.011-4.011zM14.669 25.342h2.668v4.001h-2.668v-4.001zM14.669 2.668h2.668v4.001h-2.668v-4.001zM2.665 14.672h4.001v2.667h-4.001v-2.667zM25.34 14.672h4.001v2.667h-4.001v-2.667zM5.627 24.493l2.828-2.831 1.888 1.887-2.828 2.831-1.888-1.887zM21.661 8.462l2.831-2.831 1.886 1.887-2.831 2.83-1.886-1.886zM8.459 10.349l-2.831-2.83 1.888-1.886 2.828 2.83-1.885 1.886zM26.377 24.494l-1.886 1.887-2.831-2.831 1.887-1.886 2.831 2.831z"></path>
</symbol>
<symbol id="calendar-icon" viewBox="0 0 32 32">
<path d="M16 30.667h-5.6c-2.4 0-3.733 0-4.8-0.533s-1.867-1.333-2.267-2.267c-0.667-1.2-0.667-2.533-0.667-4.933v-11.2c0-2.4 0-3.733 0.533-4.8s1.333-1.867 2.267-2.267c1.067-0.533 2.133-0.667 3.867-0.667v-1.333c0-0.8 0.533-1.333 1.333-1.333s1.333 0.533 1.333 1.333v1.333h8v-1.333c0-0.8 0.533-1.333 1.333-1.333s1.333 0.533 1.333 1.333v1.333c1.733 0 2.8 0.133 3.733 0.533 1.067 0.533 1.867 1.333 2.267 2.267 0.667 1.2 0.667 2.533 0.667 4.933v4.933c0 0.8-0.533 1.333-1.333 1.333s-1.333-0.533-1.333-1.333v-2h-21.333v8.267c0 2 0 3.067 0.267 3.6s0.667 0.933 1.2 1.2c0.533 0.267 1.6 0.267 3.6 0.267h5.6c0.8 0 1.333 0.533 1.333 1.333s-0.533 1.333-1.333 1.333zM5.333 12h21.333v-0.267c0-2 0-3.067-0.267-3.6s-0.667-0.933-1.2-1.2c-0.4-0.267-1.2-0.267-2.533-0.267v1.333c0 0.8-0.533 1.333-1.333 1.333s-1.333-0.533-1.333-1.333v-1.333h-8v1.333c0 0.8-0.533 1.333-1.333 1.333s-1.333-0.533-1.333-1.333v-1.333c-1.333 0-2.133 0-2.533 0.267-0.533 0.267-0.933 0.667-1.2 1.2s-0.267 1.6-0.267 3.6v0.267zM22 29.333c-0.4 0-0.667-0.133-0.933-0.4l-2.667-2.667c-0.533-0.533-0.533-1.333 0-1.867s1.333-0.533 1.867 0l1.733 1.733 5.067-5.067c0.533-0.533 1.333-0.533 1.867 0s0.533 1.333 0 1.867l-6 6c-0.267 0.267-0.533 0.4-0.933 0.4z"></path>
</symbol>
<symbol id="chart-icon" viewBox="0 0 32 32">
<path d="M23.808 9.041c0-0.76 0-1.306 0.037-1.734 0.037-0.435 0.104-0.595 0.133-0.647 0.009-0.013 0.013-0.016 0.016-0.019h0.001c0.039-0.026 0.085-0.046 0.134-0.059l0.003-0.001c0.208-0.064 0.57-0.112 1.208-0.112s1 0.048 1.208 0.112c0.052 0.013 0.098 0.034 0.139 0.060l-0.002-0.001c0.005 0.004 0.008 0.007 0.016 0.020 0.032 0.052 0.097 0.212 0.133 0.648 0.037 0.427 0.039 0.974 0.039 1.733v13.93c0 0.896-0.051 1.505-0.135 1.917-0.084 0.413-0.183 0.531-0.2 0.547-0.007 0.008-0.016 0.015-0.026 0.020l-0 0c-0.049 0.021-0.106 0.038-0.166 0.046l-0.004 0c-0.221 0.037-0.511 0.041-1.003 0.041-0.499 0-0.792-0.004-1.015-0.041-0.063-0.009-0.119-0.024-0.172-0.047l0.004 0.002c-0.010-0.004-0.018-0.010-0.024-0.017l-0-0c-0.015-0.015-0.112-0.131-0.195-0.547-0.083-0.413-0.132-1.022-0.132-1.921v-13.93zM25.342 4.202c-1.288 0-2.614 0.136-3.306 1.291-0.301 0.504-0.403 1.086-0.45 1.622-0.045 0.534-0.045 1.178-0.045 1.883v13.973c0 0.955 0.051 1.735 0.176 2.364 0.124 0.627 0.343 1.206 0.76 1.654 0.44 0.468 0.976 0.663 1.467 0.747 0.435 0.075 0.92 0.075 1.344 0.075h0.107c0.417 0 0.9 0 1.334-0.075 0.489-0.084 1.023-0.277 1.463-0.744 0.42-0.445 0.643-1.023 0.771-1.651 0.128-0.631 0.18-1.413 0.18-2.369v-13.973c0-0.707 0-1.348-0.045-1.883-0.047-0.536-0.147-1.118-0.45-1.622-0.694-1.155-2.018-1.291-3.306-1.291zM14.511 12.671c-0.024 0.266-0.037 0.575-0.037 0.887 0 0.079 0.001 0.157 0.003 0.236l-0-0.012v9.782c0 0.005 0 0.010 0 0.016s-0 0.011-0 0.017v-0.001c-0.033 1.147 0.175 1.534 0.299 1.667 0.107 0.115 0.377 0.279 1.231 0.279 0.835 0 1.112-0.163 1.227-0.283 0.127-0.135 0.339-0.523 0.303-1.659v-9.818c0-0.46-0.003-0.811-0.036-1.111-0.032-0.296-0.088-0.448-0.136-0.53l-0.003-0.003c-0.031-0.053-0.197-0.335-1.355-0.335-1.159 0-1.326 0.283-1.356 0.335l-0.001 0.003c-0.049 0.081-0.104 0.233-0.137 0.53zM12.702 10.977c0.64-1.067 1.821-1.441 3.304-1.441s2.664 0.373 3.303 1.441c0.284 0.475 0.395 0.99 0.445 1.444 0.049 0.438 0.049 0.907 0.049 1.328v9.795c0.040 1.302-0.16 2.464-0.922 3.269-0.776 0.824-1.87 0.995-2.876 0.995-1.016 0-2.114-0.169-2.888-1-0.755-0.807-0.944-1.97-0.91-3.261v-9.798c0-0.42 0-0.891 0.048-1.328 0.051-0.454 0.161-0.97 0.446-1.444zM5.171 19.367c-0.025 0.318-0.039 0.689-0.039 1.063 0 0.099 0.001 0.198 0.003 0.297l-0-0.015v3.689c0 0.64 0.155 0.816 0.231 0.88 0.121 0.104 0.454 0.261 1.303 0.261 0.832 0 1.167-0.156 1.296-0.264 0.080-0.068 0.237-0.248 0.237-0.878v-3.669l-0.009-0.269c-0.015-0.44-0.027-0.783-0.059-1.086-0.040-0.364-0.099-0.534-0.147-0.616v-0.001c-0.013-0.027-0.128-0.285-1.319-0.285-1.196 0-1.336 0.261-1.355 0.297l-0.001 0.003c-0.047 0.079-0.107 0.241-0.141 0.594zM3.357 17.624c0.654-1.111 1.878-1.418 3.312-1.418 1.437 0 2.649 0.307 3.289 1.431 0.277 0.484 0.379 1.020 0.431 1.495 0.043 0.395 0.057 0.842 0.072 1.28l0.008 0.259v0.013l0.001 0.027v3.689c0 0.991-0.256 1.95-1.047 2.614-0.744 0.624-1.742 0.795-2.754 0.795-1.022 0-2.025-0.169-2.768-0.798-0.791-0.67-1.034-1.631-1.034-2.612v-3.727c0-0.522 0-1.056 0.047-1.533 0.049-0.487 0.156-1.027 0.443-1.518z"></path>
</symbol>
<symbol id="user-icon" viewBox="0 0 32 32">
<path d="M2.667 29.333c-0.8 0-1.333-0.533-1.333-1.333 0-2 0-2.933 0.267-4 0.667-2.133 2.267-3.733 4.4-4.4 0.933-0.267 2-0.267 4-0.267h6c0.8 0 1.333 0.533 1.333 1.333s-0.533 1.333-1.333 1.333h-6c-1.733 0-2.533 0-3.2 0.133-1.333 0.4-2.267 1.333-2.667 2.667-0.133 0.667-0.133 1.467-0.133 3.2 0 0.8-0.533 1.333-1.333 1.333zM24 28c-0.4 0-0.667-0.133-0.933-0.4l-2.667-2.667c-0.533-0.533-0.533-1.333 0-1.867s1.333-0.533 1.867 0l1.733 1.733 4.4-4.4c0.533-0.533 1.333-0.533 1.867 0s0.533 1.333 0 1.867l-5.333 5.333c-0.267 0.267-0.533 0.4-0.933 0.4zM13.333 17.333c-4 0-7.333-3.333-7.333-7.333s3.333-7.333 7.333-7.333c4 0 7.333 3.333 7.333 7.333s-3.333 7.333-7.333 7.333zM13.333 5.333c-2.533 0-4.667 2.133-4.667 4.667s2.133 4.667 4.667 4.667 4.667-2.133 4.667-4.667-2.133-4.667-4.667-4.667z"></path>
</symbol>
</defs>
</svg>
