<svg xmlns="http://www.w3.org/2000/svg" width="167" height="204" fill="none"><ellipse cx="80.553" cy="99.972" fill="#fff" rx="13.64" ry="17.15" transform="rotate(-31 80.553 99.972)"/><ellipse cx="80.552" cy="99.972" fill="#fff" rx="11.383" ry="15.088" transform="rotate(-31 80.552 99.972)"/><ellipse cx=".918" cy="1.443" fill="#fff" rx=".918" ry="1.443" transform="matrix(.93275 -.36544 .36298 .92988 59.534 75.478)"/><ellipse cx=".918" cy="1.443" fill="#fff" rx=".918" ry="1.443" transform="matrix(-.76671 .64478 .64337 .7632 68.934 69.599)"/><path fill="#fff" fill-rule="evenodd" d="M62.558 69.592c-1.551.948-4.154 3.43-2.15 5.772 1.344 1.57 1.135 2.508.91 3.522-.196.877-.404 1.81.368 3.258.702 1.316 1.586 2.002 2.467 2.688 1.213.942 2.422 1.881 3.15 4.446 1.006 3.545 6.212 12.308 8.712 16.191l5.798-3.484 5.733-3.408c-2.217-4.051-7.296-12.776-9.93-15.354-1.855-1.817-1.82-3.293-1.784-4.764.027-1.14.054-2.276-.796-3.565-.908-1.378-2.05-1.64-3.15-1.892-1.26-.288-2.463-.563-3.197-2.484-1.1-2.88-4.523-1.78-6.097-.87l-.034-.056Z" clip-rule="evenodd"/><ellipse cx="2.219" cy="3.126" fill="#fff" rx="2.219" ry="3.126" transform="matrix(-.5595 .8303 .8299 .55574 62.816 78.83)"/><ellipse cx="2.219" cy="3.126" fill="#fff" rx="2.219" ry="3.126" transform="matrix(-1.0002 -.0336 -.03698 .99855 75.803 74.02)"/><path fill="#fff" d="M83.653 91.827c-3.084 4.252-8.905 6.84-11.507 7.172l.834 1.34c6.087-.4 10.151-4.97 11.498-7.183l-.825-1.33Z"/><path fill="#fff" d="M84.462 93.107c-3.57 5.292-8.906 6.853-11.507 7.216l.675 1.037c6.093-.474 10.399-4.527 11.705-6.751l-.873-1.502Z"/><ellipse cx=".412" cy=".647" fill="#fff" opacity=".2" rx=".412" ry=".647" transform="matrix(.9943 -.11783 .11473 .99214 68.384 70.317)"/><ellipse cx=".412" cy=".647" fill="#fff" opacity=".2" rx=".412" ry=".647" transform="matrix(.9943 -.11783 .11473 .99214 60.093 75.414)"/><path fill="#fff" d="M63.139 77.836c-2.51-3.81.873-6.705.886-6.647 4.394-1.242 6.06 2.337 6.222 2.916.448 1.595 3.47 1.444 3.635 3.285.165 1.842 1.948 4.821 2.62 7.24.413 1.481.167 2.258-.132 2.596.1-.058.061-.028-.035.037a.639.639 0 0 1-.237.158c.089-.058.175-.116.237-.158a.952.952 0 0 0 .035-.037c-.13.076-.5.303-1.289.8-2.226 1.399-4.123-1.472-8.079-3.69-3.956-2.218-.727-1.738-3.863-6.5Z"/><path fill="#fff" d="M74.227 86.59c-1.901.917-4.861-2.733-6.103-4.673.966-.904 3.171-2.677 4.265-2.535 1.367.177 4.215 6.062 1.838 7.208Z"/><path fill="#fff" d="M74.294 85.865c1.172-.91-.868-3.431-2.034-4.579l-2.457 1.46c1.009 1.42 3.32 4.03 4.49 3.12Z"/><path fill="#fff" d="M73.567 84.961c.151-.341-1.854-2.845-2.875-4.054l-.505.378c1.064 1.368 3.23 4.018 3.38 3.676Z"/><path fill="#fff" d="M66.486 80.834c-.318-3.314-1.883-4.326-2.626-4.418.413-3.627 3.468-3.47 4.943-2.938.065 3.389-.066.725 3.191 4.082 2.606 2.686 1.165 4.982.118 5.794-1.742.54-5.307.794-5.626-2.52Z"/><path fill="#fff" d="M72.925 78.774c-5.22-2.198-5.652 1.938-5.215 4.28.732.632 2.653 1.57 4.48.27 1.826-1.3 1.251-3.575.735-4.55Z"/><path fill="#fff" d="M69.405 80.2c-.23-.315-.71-.865-.79-.545-.081.32.493.496.79.545ZM70.041 79.823c-.22-.322-.578-.958-.25-.927.329.03.304.63.25.927ZM63.226 65.91l1.955 2.706c-.677 2.437-3.91 3.612-5.441 3.895l-1.95-2.786 5.436-3.815Z"/><path fill="#fff" d="M65.181 68.616c.556 1.759.127 4.88-5.447 3.87l5.447-3.87Z"/><ellipse cx="3.32" cy=".572" fill="#fff" rx="3.32" ry=".572" transform="matrix(.82324 -.57099 .56926 .81988 57.458 69.24)"/><path fill="#fff" d="M60.584 68.864c.018-.002.032-.004.047-.004a.405.405 0 0 1 .302.102c.038.033.072.071.107.106l.092.093c.009.007.01.012.001.022-.02.019-.03.044-.022.072.006.025.024.04.047.046.024.007.046 0 .065-.015.01-.008.013-.017.01-.03a.71.71 0 0 0-.099-.275c-.043-.07-.098-.13-.151-.192-.03-.035-.059-.072-.09-.106a.275.275 0 0 1-.048-.07.19.19 0 0 1-.017-.087.15.15 0 0 1 .079.035c.02.017.04.039.056.06.019.021.035.046.051.069.045.06.09.121.136.18.078.098.175.17.292.214.015.007.026.003.037-.008a.072.072 0 0 0 .01-.097c-.021-.027-.063-.032-.094-.01-.011.008-.015.005-.02-.005l-.095-.152c-.035-.058-.074-.113-.092-.18a.416.416 0 0 1 .02-.273l.011.013.574.726c.011.014.011.014-.002.025l-.149.12c-.009.008-.01.013-.006.024a.354.354 0 0 1 .028.248c-.004.018-.005.037-.008.056-.054-.01-.112 0-.166-.02a.378.378 0 0 1-.123-.068c-.008-.007-.014-.006-.022 0l-.152.123c-.008.007-.014.008-.022-.002l-.577-.73c-.003 0-.005-.003-.01-.01Zm.144.068c0 .002-.002.004-.003.005l.01.014.274.346c.016.02.016.02.036.003.007-.006.01-.011.005-.02a.117.117 0 0 1 .002-.088c.005-.012.002-.019-.007-.027-.04-.039-.081-.078-.12-.119a.351.351 0 0 0-.131-.09l-.066-.024Zm.519-.417-.004.002c0 .008 0 .016.002.024.005.058.009.104.038.154l.115.188c.005.008.01.012.021.01a.12.12 0 0 1 .086.017c.012.008.021.005.035-.011.008-.01-.001-.015-.006-.02l-.279-.353a.041.041 0 0 0-.008-.01Zm.008.83-.013.006c-.046.023-.093.029-.138-.002-.006-.004-.01-.005-.016 0l-.013.01c-.006.006-.007.01-.002.017l.114.143c.002.002.012.004.014.002.035-.027.069-.055.102-.083.003-.002.004-.01.003-.014a20.236 20.236 0 0 0-.05-.08Zm.269-.218.067.068c.006.006.011.002.016-.002l.095-.077c.01-.009.01-.015.002-.024l-.1-.128c-.017-.02-.017-.02-.036-.004-.006.005-.01.009-.007.017.018.047.007.089-.02.128l-.017.022Zm-.275-.07a.977.977 0 0 1 .05.19c.03-.002.058-.004.086-.008.004 0 .01-.006.011-.01.008-.024.014-.047.023-.07.002-.008.001-.012-.007-.016a.726.726 0 0 1-.15-.08l-.013-.007Zm.164.373c.023.035.11.073.137.065v-.002l-.077-.099c-.002-.002-.01-.003-.013-.001-.016.011-.032.025-.047.037Zm.191.023c.014-.037-.008-.13-.032-.152l-.043.034c-.008.007-.008.012-.002.02l.063.08a.207.207 0 0 0 .014.018Zm-.209-.09c.008-.007.018-.014.025-.022.002-.001.003-.01.001-.012-.026-.025-.062-.035-.094-.02-.006.004-.008.007-.005.014.01.02.022.038.034.058.004.007.01.006.016.001l.023-.02Zm.116-.094.022-.018c.008-.005.01-.012.002-.02a1.468 1.468 0 0 0-.044-.042c-.008-.006-.013-.005-.018.004a.087.087 0 0 0 0 .094c.002.003.01.004.013.002l.025-.02Z"/><path fill="#fff" d="m63.226 65.91 1.955 2.706c-.677 2.437-3.91 3.612-5.441 3.895l-1.95-2.786s.502-.212.788-.408c.343-.235.78-.724.78-.724l3.2 1.373-.881-3.141s.594-.067.91-.257c.307-.185.64-.658.64-.658Z"/><ellipse cx="81.775" cy="102.016" fill="#fff" rx="6.717" ry="1.825" transform="matrix(.85717 -.5165 .51359 .85717 -40.714 56.807)"/><path fill="#fff" d="M73.398 102.318 86.31 94.56l3.029 5.041-12.912 7.758z"/><path fill="red" d="M107.192 149.797c-8.025-11.377-6.83-14.944-3.773-17.098 3.058-2.155 6.821-2.081 14.846 9.296 8.026 11.377 14.218 31.905 14.218 31.905-9.115-12.921-17.265-12.726-25.291-24.103Z"/><path fill="red" d="M108.299 139.616c-8.026-11.377-6.831-14.944-3.773-17.098 3.058-2.155 6.82-2.081 14.846 9.296 8.026 11.378 14.217 31.905 14.217 31.905-9.114-12.921-17.265-12.725-25.29-24.103ZM95.064 144.355c-8.025-11.377-6.83-14.944-3.772-17.098 3.057-2.155 6.82-2.081 14.845 9.296 8.026 11.377 14.218 31.905 14.218 31.905-9.115-12.921-17.265-12.726-25.29-24.103Z"/><path fill="#B7B7B7" d="M42.444 73.55 77.39 52.552l41.087 68.38-34.947 20.998z"/><ellipse cx="100.964" cy="131.36" fill="#B7B7B7" rx="20.386" ry="8.042" transform="rotate(-31 100.964 131.36)"/><path fill="url(#a)" fill-rule="evenodd" d="M75.718 49.766 40.77 70.765l41.087 68.379.001-.001c2.363 3.719 11.982 2.089 21.574-3.674 9.592-5.764 15.547-13.491 13.372-17.323l.001-.001-.006-.009-.035-.06-.037-.059-41.009-68.25Z" clip-rule="evenodd"/><path fill="url(#b)" d="M40.484 70.29c8.158 13.577 43.153-7.45 34.995-21.027-11.154-18.564-41.006-27.977-41.006-27.977s-5.227 30.3 6.011 49.004Z"/><path fill="url(#c)" d="m60.41 142.537 17.217-10.345-23.229-38.659s-5.227 30.301 6.011 49.004Z"/><path fill="url(#d)" d="m129.84 100.82-17.218 10.345-23.228-38.659s29.208 9.61 40.446 28.314Z"/><ellipse cx="80.553" cy="99.972" fill="#EDEDED" rx="13.64" ry="17.15" transform="rotate(-31 80.553 99.972)"/><ellipse cx="80.552" cy="99.972" fill="#888" rx="11.383" ry="15.088" transform="rotate(-31 80.552 99.972)"/><ellipse cx=".918" cy="1.443" fill="#000" rx=".918" ry="1.443" transform="matrix(.93275 -.36544 .36298 .92988 59.535 75.477)"/><ellipse cx=".918" cy="1.443" fill="#000" rx=".918" ry="1.443" transform="matrix(-.76671 .64478 .64337 .7632 68.936 69.598)"/><path fill="#fff" fill-rule="evenodd" d="M62.56 69.591c-1.552.948-4.155 3.43-2.15 5.772 1.343 1.57 1.134 2.508.908 3.522-.195.877-.403 1.81.37 3.258.7 1.316 1.584 2.003 2.466 2.688 1.213.942 2.422 1.881 3.15 4.446 1.006 3.545 6.212 12.308 8.712 16.192l5.798-3.484 5.733-3.409c-2.217-4.051-7.296-12.776-9.93-15.354-1.855-1.816-1.82-3.292-1.784-4.764.027-1.14.054-2.275-.796-3.565-.908-1.378-2.05-1.64-3.15-1.891-1.26-.289-2.463-.564-3.197-2.485-1.1-2.88-4.523-1.78-6.097-.87l-.034-.056Z" clip-rule="evenodd"/><ellipse cx="2.219" cy="3.126" fill="url(#e)" rx="2.219" ry="3.126" transform="matrix(-.5595 .8303 .8299 .55574 62.817 78.83)"/><ellipse cx="2.219" cy="3.126" fill="url(#f)" rx="2.219" ry="3.126" transform="matrix(-1.0002 -.0336 -.03698 .99855 75.804 74.02)"/><path fill="#005BBB" d="M83.654 91.826c-3.084 4.253-8.905 6.84-11.507 7.172l.834 1.341c6.087-.401 10.151-4.97 11.498-7.183l-.825-1.33Z"/><path fill="#FFD500" d="M84.464 93.107c-3.57 5.291-8.906 6.852-11.507 7.216l.675 1.037c6.093-.475 10.398-4.527 11.705-6.752l-.873-1.501Z"/><ellipse cx=".412" cy=".647" fill="#fff" opacity=".2" rx=".412" ry=".647" transform="matrix(.9943 -.11783 .11473 .99214 68.385 70.316)"/><ellipse cx=".412" cy=".647" fill="#fff" opacity=".2" rx=".412" ry=".647" transform="matrix(.9943 -.11783 .11473 .99214 60.094 75.414)"/><path fill="#FF6B0A" d="M63.14 77.835c-2.51-3.81.873-6.705.886-6.647 4.394-1.242 6.06 2.337 6.223 2.917.447 1.595 3.47 1.443 3.634 3.285.165 1.841 1.948 4.82 2.62 7.239.413 1.481.167 2.258-.132 2.596.1-.057.061-.028-.035.037a.638.638 0 0 1-.237.158c.089-.058.175-.115.237-.158a.881.881 0 0 0 .035-.037c-.13.077-.5.304-1.289.8-2.226 1.4-4.123-1.471-8.079-3.69-3.956-2.218-.727-1.738-3.864-6.5Z"/><path fill="#000" d="M74.23 86.59c-1.902.917-4.862-2.734-6.104-4.674.966-.904 3.171-2.677 4.265-2.535 1.366.177 4.215 6.063 1.838 7.209Z"/><path fill="#956C7C" d="M74.295 85.865c1.171-.91-.868-3.432-2.034-4.58l-2.457 1.461c1.008 1.419 3.32 4.029 4.49 3.119Z"/><path fill="#86616F" d="M73.568 84.96c.151-.34-1.854-2.844-2.875-4.054l-.505.379c1.064 1.367 3.23 4.017 3.38 3.676Z"/><path fill="#EB6005" d="M66.488 80.833c-.318-3.314-1.883-4.326-2.626-4.418.413-3.627 3.468-3.47 4.943-2.938.065 3.389-.066.725 3.191 4.082 2.606 2.686 1.165 4.982.118 5.794-1.742.541-5.307.794-5.626-2.52Z"/><path fill="#EFE5D5" d="M72.926 78.773c-5.22-2.197-5.652 1.938-5.215 4.28.732.632 2.653 1.57 4.48.27 1.826-1.299 1.251-3.574.735-4.55Z"/><path fill="#DACAB0" d="M69.406 80.2c-.23-.316-.71-.865-.79-.546-.081.32.493.497.79.545ZM70.042 79.822c-.22-.322-.578-.958-.25-.927.329.031.304.63.25.927Z"/><ellipse cx="81.778" cy="102.016" fill="#fff" rx="6.717" ry="1.825" transform="matrix(.85717 -.5165 .51359 .85717 -40.714 56.809)"/><path fill="url(#g)" d="M73.4 102.318h15.063v5.881H73.4z" transform="rotate(-31 73.4 102.318)"/><defs><linearGradient id="a" x1="52.997" x2="110.47" y1="88.772" y2="73.026" gradientUnits="userSpaceOnUse"><stop stop-color="#C8C8C8"/><stop offset="1" stop-color="#fff"/></linearGradient><linearGradient id="b" x1="40.368" x2="73.478" y1="67.753" y2="21.504" gradientUnits="userSpaceOnUse"><stop stop-color="#C8C8C8"/><stop offset="1" stop-color="#fff"/></linearGradient><linearGradient id="c" x1="55.165" x2="75.599" y1="132.656" y2="111.454" gradientUnits="userSpaceOnUse"><stop stop-color="#C8C8C8"/><stop offset="1" stop-color="#fff"/></linearGradient><linearGradient id="d" x1="123.577" x2="95.264" y1="91.55" y2="99.638" gradientUnits="userSpaceOnUse"><stop stop-color="#C8C8C8"/><stop offset="1" stop-color="#fff"/></linearGradient><linearGradient id="g" x1="80.932" x2="80.932" y1="102.318" y2="108.199" gradientUnits="userSpaceOnUse"><stop stop-color="#888" stop-opacity="0"/><stop offset="1" stop-color="#888"/></linearGradient><radialGradient id="e" cx="0" cy="0" r="1" gradientTransform="matrix(0 3.12601 -2.21927 0 2.22 3.126)" gradientUnits="userSpaceOnUse"><stop stop-color="#FBB"/><stop offset="1" stop-color="#FBB" stop-opacity="0"/></radialGradient><radialGradient id="f" cx="0" cy="0" r="1" gradientTransform="matrix(0 3.126 -2.21927 0 2.22 3.126)" gradientUnits="userSpaceOnUse"><stop stop-color="#FBB"/><stop offset="1" stop-color="#FBB" stop-opacity="0"/></radialGradient></defs></svg>